<?xml version="1.0" encoding="UTF-8"?>
<svg id="Layer_1" data-name="Layer 1" xmlns="http://www.w3.org/2000/svg" viewBox="0 0 5000 894.42">
  <defs>
    <style>
      .cls-1 {
        fill: #e6e6e6;
        fill-rule: evenodd;
      }
    </style>
  </defs>
  <path class="cls-1" d="m4970.68,405.99c-45.8-.46-91.61-.09-137.41-.02-51.84-.19-103.67-.39-155.51-.58-34.83-1.02-69.65-2.06-104.48-2.99-.69-.02-1.42,1.07-2.13,1.65-3.13-.06-6.27-.12-9.4-.18-1.08-1.44-2.12-4.1-3.24-4.13-51.74-1.39-103.49-2.42-155.23-3.78-29.17-.77-58.34-1.69-87.47-3.29-7.36-.4-18.05-7.72-21.28-4.94-21.02,18.05-37.41,5.05-53.33-5.35-7.47,5.67-14.22,10.78-20.3,15.39-14.06-7.02-26.79-13.38-39.04-19.5-5.83,7.49-11.19,14.37-18.46,23.71-20.57-34.41-41.55-14.86-62.99-2.68-4.19-7.57-7.56-13.68-11.5-20.82-16.09,5.06-31.53,9.93-44.49,14-6.06-5.97-10.66-10.51-15.27-15.05-8.23,18.77-27.56-10.01-36.6,8.11-.13.27-10.46-6.62-15.83-6.34-5.89.31-11.55,5.06-18.34,8.37-1.94-7.28-3.74-14-5.25-19.69-14.38-3.17-24.33-1.62-25.88,13.86-11.88-9.36-12.3,11.4-23.93,7.44-1.67-4.19-3.77-9.81-6.01-15.43-1.04.34-2.39.68-2.98,1.02v35.96c-1.77.14-3.27.11-4.84-.1-.88-17.09-1.83-34.18-2.7-51.27-16.35,15.63-30.78,25.02-51.57,13.52-2.51-7.28-5.46-15.79-8.01-23.19-11.03,11.52-21.45,22.38-30.4,31.72-8.71-10.1-17.66-20.35-26.18-30.23-9.56,10.42-16.06,17.91-27.26,29.61v29.6c-1.18.15-2.5.18-3.8.09-2.06-20.22-4.07-40.43-6.73-66.63-6.19,14.09-9.47,21.62-13.54,30.89-4.64-13.39-8.25-23.84-11.87-34.29-1.85.42-3.7.83-5.56,1.25-1.22,8.31-2.43,16.62-4.3,29.41-2.79-9.2-4.02-13.26-5.37-17.7-3.81,3.13-6.73,5.53-12.81,10.51-1.15-20.14-2.05-35.99-2.95-51.84-1.22-.02-2.43-.04-3.65-.06-3.02,18.45-6.05,36.89-10.2,62.28-6.18-17.76-10.28-29.2-14.26-40.65-1.31.14-2.27.28-4.04.42v42.73c-1.18.06-2.15.12-3.29.18-2.03-11.55-4.01-23.1-6.05-34.64-1.44.31-2.86.62-4.3.93-2.8,15.01-5.58,30.03-8.38,45.05-2.33-32.74,4.97-66.31-8.79-100.58-2.47,27.68-4.72,52.99-6.98,78.29-1.87-.1-3.74-.21-5.61-.31-3.02-10.52-6.13-21.04-9.15-31.57-1.72.2-3.48.4-5.25.59v43.41c-2.36-.04-4.69-.09-7.07-.13-.92-16.91-1.8-33.81-2.78-51.87-3.72,3.31-5.85,5.22-8.44,7.53-3.09-26.37-6.02-51.52-9.62-82.3-2.93,31.35-5.31,56.85-7.69,82.36-2.21,12.79-4.41,25.58-6.62,38.37-1.46-.17-2.91-.34-4.37-.51-.74-12.48-1.46-24.96-2.39-40.61-5.78,17.54-9.98,31.09-14.7,44.65v-49.54c-18.28,6.12-17.19-5.78-17.32-15.82-.29-23.02-.1-46.04-.1-69.06-8.4,38.24-12.54,76.4-16.43,114.57-.87,8.57-.88,17.22-1.28,25.84-.7-.07-1.39-.14-2.09-.22-2.31-16.14-4.62-32.29-6.92-48.43-1.87.24-3.75.49-5.62.74-.61,10.69-1.22,21.39-1.82,32.08-1.21.03-2.41.06-3.62.08-.76-17.38-1.52-34.76-2.28-52.14-2.54.09-5.07.18-7.61.27-1.33,15.14-2.62,30.28-3.95,45.41-2.55-.12-5.26-.24-7.62-.35v-134.68c-2.36.04-4.03.08-6.02.12-3.96,56.32-7.8,112.65-11.76,168.97-1.97-.1-4.04-.21-5.81-.31v-43.54c-23-4.43-33.13-15.36-33.48-36.02-.42-24.52-.17-49.05-.17-73.57-13.47,36.03-7.53,76.75-34.12,108.06-2.4-10.54-4.83-21.09-7.26-31.75-3.41,5.85-6.97,11.77-10.43,17.68-1.55-.25-3-.5-4.78-.74v-100.32c-7.66,31.67-15.28,60.61-24.24,95.88-2.15-12.69-3.13-18.77-4.79-28.57-8.56,14.99-15.38,26.99-24.69,43.3-2.67-35.67,1.22-66.36-2.77-96.3-2.56.08-5.12.16-7.68.24-.91,16.81-1.86,33.61-2.77,50.42-1.65-.13-3.24-.26-5.01-.39v-52.09c-.59-.04-1.69-.07-2.57-.11-1.89,10.51-3.76,21.02-6.33,35.31-5.83-7.81-8.08-10.85-9.22-12.39-5.97,23.19-11.98,46.58-18.69,72.69-31.62-52.32-9.95-109.05-21.42-160.8-2.63.15-5.45.29-7.81.44v106.03c-1.77-.08-2.75-.17-4.08-.25-1.18-13.48-2.4-26.95-3.59-40.43-2.88.15-5.78.29-8.66.44-3.81,49.25-7.62,98.5-11.43,147.75-1.82-11.55-5.06-23.08-5.21-34.65-.61-45.43-.14-90.87-.14-136.32-1.97,0-4.04.02-5.81.03v153.48c-1.77.01-3.29.03-4.89.04-2.74-62.05-5.53-124.09-8.26-186.14-1.02.03-2.06.06-3.08.08-1.66,36.61-3.34,73.22-5,109.83-1.42,1.82-2.85,3.65-4.26,5.48-.48-.71-1.38-1.42-1.38-2.14-.08-19.74-.06-39.47-.06-59.21-2.38-.06-4.76-.13-7.13-.19-1.62,18.89-3.03,37.8-4.89,56.66-3.23,32.71-6.73,65.4-10.12,98.1-.49-58.89-.97-117.78-1.46-176.66-3.12-.1-6.24-.2-9.37-.3-2.68,41.75-.06,83.94-1.79,125.78-2.02-.08-3.76-.15-6.12-.23v-217.95c-6.49,51.5-8.14,102.99-10.2,154.46-.43,10.7-3.36,21.3-5.13,31.94v-38.12c-2.36-.12-4.91-.24-7.36-.36-3.19,18.28-6.4,36.56-9.59,54.85-1.8-8.79-4.34-17.51-5.26-26.39-2.89-27.81-5.32-55.68-7.84-83.52-.94.05-1.8.1-2.98.15v188.3c-1.77.01-4.54.02-6.88.04.22-78.34.74-156.68.46-235.02-.03-10.14-3.86-20.26-5.94-30.4-4.78,45.1-4.41,89.31-5.01,133.51-.14,10.64-3.45,21.23-5.3,31.84-2.1-14.75-4.19-29.51-6.28-44.26-1.35.2-2.7.41-4.05.61-2.13,19.9-4.26,39.79-6.39,59.69-1.8-10.62-4.69-21.18-5.17-31.86-.85-18.81-.24-37.68-.24-56.52-2.46-.06-4.92-.13-7.39-.19-8.26,51.33-.76,103.77-7.17,155.32-2.7-80.8-5.4-161.6-8.1-242.4-5.17,49-4.85,97.89-5.4,146.76-.13,11.76-3.16,23.49-4.85,35.24-2-9.4-5.32-18.74-5.72-28.2-.88-20.51-.27-41.09-.27-61.64-1.96,0-3.91,0-5.86,0,0,13.43.43,26.89-.48,40.25-.13,1.91-6.73,3.38-10.34,5.05-1.84-10.64-5.01-21.25-5.26-31.92-.72-30.03-.25-60.1-.25-90.15-1.35,0-2.7,0-4.05-.01-2.95,58.77-5.91,117.55-8.86,176.32-1.31-.04-2.63-.09-3.94-.13,0-9.1,0-18.19,0-27.28-.01-71.2.11-142.4-.19-213.6-.04-8.7-2.4-17.4-3.66-26.09-2.4.33-4.9.67-7.26,1.01v27.16c0,55.48.31,110.96-.21,166.44-.09,9.69-3.41,19.34-5.25,29.02-1.42-41.03-2.83-82.05-4.25-123.07-1.83.02-3.64.04-5.47.06-2.32,48.43-4.63,96.86-6.95,145.29-1.88-10.58-5.28-21.15-5.36-31.75-.5-68.48-.23-136.96-.23-205.43v-34.42c-7.08,50.57-9.83,101.09-10.87,151.63-1.04,50.6-.25,101.24-.25,151.86-1.26-.03-2.54-.06-3.8-.09-2.81-93.85-5.66-187.71-8.46-281.56-1.62,0-3.16,0-4.93-.01v237.22c-1.18-.02-2.4-.05-3.63-.07-2.92-47.59-5.81-95.17-8.73-142.76-.49-.03-.97-.05-1.45-.08-2.55,34.95-5.1,69.9-7.66,104.85-10.78-51.45,2.22-104.12-14.31-154.67-1.88,3.65-2.37,7.24-2.49,10.85-1.94,58.09-3.71,116.19-5.98,174.26-.27,6.97-3.52,13.83-5.28,20.74V117.52c-1.77.01-3.63.02-5.47.03,0,28.56,1.12,57.17-.16,85.68-1.29,28.74,6.22,58.48-10.88,86.03v-145.45c-1.18,0-2.17-.02-3.2-.03-2.7,31.67-5.38,63.33-8.08,95-9.71-36.81,1.85-75.31-17.61-110.99v191.81c-3.54.04-6.32.08-9.44.13-1.57-72.84.19-145.83-3.95-218.65-4.53,45.99-5.95,91.95-7.95,137.88-.47,10.71-3.42,21.31-5.18,31.97v-87.34c-2.36.05-4.72.1-7.08.15v114.77c-24.77-45.85-11.07-95.63-20.01-143.17-10.39,75.9-3.63,152.35-9.99,228.39-2.3-66.99-4.71-133.98-7.01-200.97-2.17.02-4.27.03-6.63.05v90.06c-4.72-9.12-5.08-18.15-5.08-27.18,0-52.72.38-105.44-.23-158.15-.15-12.69-3.46-25.35-5.33-38.02-1.21.2-2.4.39-3.61.59-2.26,66.84-4.51,133.68-6.76,200.52-1.36-.02-2.72-.04-4.09-.06-2.63-48.41-5.26-96.81-7.89-145.22-1.78.02-3.57.04-5.34.06v26.04c0,79.54.24,159.08-.2,238.62-.07,13.68-3.02,27.34-4.64,41.01-.64,1.75-.67,3.51-.07,5.28-.85,2.74-1.65,5.47-4.05,13.17-1.54-9.91-2.25-14.25-2.84-18.6v-248.99c-1.77-.01-4.13-.02-5.9-.04v120.86c-8.25-55.52,2.33-111.91-13.88-166.68-1.89,54.31-1.58,108.59-2.11,162.87-.1,10.57-3.33,21.1-5.12,31.65-.03-25,1.14-50.07-.34-74.98-3.18-53.18-7.72-106.28-11.71-159.41-3.83,4.31-4.61,8.63-4.68,12.95-1.66,109.02-3.25,218.04-4.85,327.07-.68,7.92-1.36,15.84-2.04,23.75-1.04,0-1.98-.02-3.02-.03-.63-9.68-1.2-19.35-1.79-29.03v-187.88c-2.36.02-4.13.04-5.9.06v37.64c-2.36-.03-4.12-.07-6.12-.1-1.93-81.5-3.89-163-5.83-244.5-1.31.01-2.79.02-3.97.03v267.88c-1.77,0-3.54.01-5.31.02V82.94c-1.77-.03-3.54-.06-5.31-.09v56c-5.31-7.87-7.14-11.18-9.28-14.5-2.04-.04-4.29-.08-6.06-.12v102.5c-1.77-.14-3.3-.29-4.88-.43-2.65-16.76-5.51-33.51-8.16-50.26-1.88.16-3.48.31-5.83.46v123.92c-1.77,0-3.54,0-5.9.01V67.41c-1.77.04-4.13.08-5.9.12v43.16c-1.18-.06-1.72-.12-2.56-.18-3.01-31.52-6.04-63.04-9.05-94.56-1.27.02-2.56.05-3.83.07,0,9.1,0,18.2,0,27.31,0,74.96.2,149.92-.27,224.87-.07,10.56-3.47,21.09-5.33,31.63-.07-27.65-.15-55.3-.22-82.95-2.57-.07-5.14-.15-7.72-.22-3.27,26.22-6.48,52.44-9.74,78.67-1.46-.09-3.14-.19-4.32-.29v-79.58c-1.18-.2-2.26-.41-3.37-.61-1.55,4.57-3.13,9.14-4.68,13.71-1.36.02-2.74.05-4.11.08-3.94-76.21-7.89-152.43-11.84-228.64-1.55,84.39-1.49,168.53-25.07,249.26-.65-4.71-1.66-11.29-3.29-23.17-3.47,26.35-6.03,46.89-8.98,67.44V50.89c-2.95.02-5.9.04-9.43.06v221.55c-2.36,0-4.72,0-7.67-.01v-134.85c-7.08,56,1.39,113.36-19.96,165.85-2.64-76.47-5.2-154.7-7.89-232.54h-5.76v184.33c-1.77-.02-3.54-.03-5.9-.05v-66.34c-.59.04-1.64.09-2.5.13-2.94,31.55-5.84,63.1-8.78,94.65-4.35-9.23-3.71-18.33-4.51-27.31-.79-8.82-3.03-17.52-4.63-26.27-2.08.17-4.17.33-6.25.5-2.81,8.93-5.61,17.87-8.42,26.8-1.8-.04-3.59-.08-5.39-.12-1.46-23.32-2.91-46.64-4.37-69.96-4.17,33.92-3.77,67.79-4.4,101.63-.2,10.68-3.14,21.31-4.83,31.96-2.01-95-4-190-6.1-285.01-.1-4.62-1.03-9.22-1.65-13.83-1.45.1-3.03.2-4.21.3v249.71c-1.18,0-2.15,0-3.15-.01-2-68.72-3.96-137.45-5.95-206.18-2.09.03-4.47.07-6.23.1v345.13c-.59,1.74-.7,3.47-.06,5.2-.85,2.87-1.74,5.73-4.12,13.8-1.57-10.26-2.28-14.74-2.96-19.21.22-23.11.57-46.22.62-69.33.09-34.22-1.08-68.47.21-102.64,1.32-34.89-26.54-61.99-24.37-96.82.1-1.6-3.52-3.44-9.41-8.46v161.36c-1.18-.02-2.98-.03-4.53-.05-2.81-67.09-5.56-134.18-8.36-201.27-.51.02-1,.05-1.51.07-2.93,57.47-5.82,114.94-8.75,172.41-1.73-.06-3.38-.11-5.15-.17V21.48c-1.18,0-2.27-.01-3.39-.02-2.94,53.96-5.89,107.92-9.11,166.86-3.33-25.88-6.01-46.51-8.66-67.13-2.08-22.02,4.65-45.36-12.45-71.72v188.44c-1.77-.03-3.54-.06-4.72-.09V61.05c-1.18-.03-2.1-.05-3.11-.08-2.89,35.43-5.84,70.86-8.73,106.29-.88.06-1.79.13-2.68.19-1.3-7.75-2.61-15.5-3.9-23.25-4.42,17.97,1.64,38.89-5.85,52.15-11.21,19.86-8.3,38.81-8.74,58.29-.85,37.93.1,75.91-.36,113.86-.12,9.9-2.69,19.78-4.13,29.66-.4-26.76-.18-53.54-1.38-80.26-1.17-26.1-3.69-52.14-5.67-78.21-1.89.11-3.81.22-5.58.33v82.34c-1.18.05-2.23.09-3.29.14-3.1-26.34-6.2-52.68-9.3-79.02-1.3.07-2.75.14-3.93.21v96.01c-1.18,0-2.06.01-3.07.02-2.79-52.52-5.51-105.04-8.3-157.56-1.93.01-3.96.02-5.73.03v79.27c-1.18-.07-2.39-.14-3.55-.21-.91-3.56-1.85-7.11-2.76-10.67-1.37-10.92-2.54-21.86-4.17-32.74-1.76-11.72-4.12-23.37-6.14-35.05-2.07.21-4.02.42-6.37.63v93.34c-.59-.07-1.34-.14-2.08-.21-2.8-43.86-5.52-87.72-8.31-131.59-4.89,64.84-4.54,129.49-5.05,194.12-.07,9.21-4.02,18.4-5.79,27.59v-166.5c-1.18,0-2.64-.01-3.92-.02-.69,13.24-1.43,26.48-2.44,45.85-3.54-10.77-5.07-15.35-6.57-19.93-1.54.06-3.09.11-4.62.17-3.61,45.15-7.22,90.29-10.83,135.43-1.8.2-3.61.39-5.42.58-4.19-21.17-8.38-42.34-12.95-65.44-1.94,5.7-3.5,10.29-6.36,18.68-3.14-57.74-5.98-111.63-8.91-165.52-1.37.05-2.85.1-4.02.15v110.53c-25.36-.66-11-24.84-20.64-35.69-2.19,2.48-5.5,4.45-5.51,6.45-.55,59.83-.79,119.67-1.07,179.5-.71,9.2-1.44,18.4-2.16,27.6-1.04-.09-2.09-.17-3.13-.26-.56-9.12-1.12-18.23-1.68-27.35.07-80.54.16-161.07.08-241.61,0-2.52-1.73-5.09-2.87-7.53-.34-.72-1.36-1.22-2.18-1.57-.82-.35-1.77-.38-5.46-1.09,0,40.1.37,79.72-.24,119.32-.17,10.64-3.31,21.22-5.08,31.83-.12-21.22.87-42.52-.83-63.61-.85-10.53-6.67-20.67-10.21-30.99-2.45.56-5.07,1.12-7.43,1.68v94.29c-2.95-2.76-3.48-5.48-4.21-8.06-.58-2.02-1.69-3.87-2.59-5.79-1.34.12-2.66.24-4,.36-2.09,20.87-4.18,41.74-6.27,62.61-.53-.08-1.06-.16-1.59-.24-2.85-38.96-5.7-77.92-8.54-116.88-4.54,39.61-4.16,79.09-4.79,118.56-.17,10.55-3.39,21.04-5.21,31.56-1.68-49.95-3.36-99.91-5.03-149.86-2.69-.09-5.39-.19-8.08-.28-1.25,18.61-2.5,37.22-3.75,55.84-15.83-2.44-10.7-15.22-10.95-24.17-.73-26.88-.26-53.79-.26-80.7-2.65-.1-5.3-.2-7.96-.3-1.53,22.4-3.01,44.81-4.53,67.22-1.22,0-2.44,0-3.62,0v-100.88c-1.77-.01-3.27-.03-4.88-.05-2.87,61.08-5.77,122.17-8.64,183.25-.42-.05-.85-.11-1.27-.16-2.74-55.68-5.49-111.36-8.23-167.04-2.68-.12-5.37-.24-8.05-.35-6.17,35.4.4,72.03-8.44,107.63v-50.45c-1.18.03-2.29.06-3.44.09-1.93,33.49-3.73,66.97-5.65,100.45-2.51-.09-5.06-.18-7.41-.26v-123.1c-7.67,37.73-6.79,76.63-22.43,112.05-2.1-.25-4.11-.49-6.47-.73v-55.25c-2.95-10.05-8.04-19.88-9.63-30.2-3-19.49-4.17-39.26-6.11-58.92-4.87,8.14-4.7,22.41-7.65,23.09-21.87,4.99-12.69,20.74-13.4,33.06-2.7.8-7.69,2.48-7.77,2.28-3.52-9.16-8.76-18.36-9.31-27.81-1.32-22.92-.43-45.96-.43-68.95-4.92,3.61-5.49,7.19-5.55,10.77-.39,24.03,6.31,51.08-2.5,71.43-16.36,37.77-13.3,75.6-14.53,113.98-.24,7.46-2.26,14.86-3.41,22.29-2.5-.19-4.64-.37-7.59-.56v-106.73c-1.18.03-2.95.07-4.72.1v160.39c-2.36,0-4.72.02-7.08.03v-62.47c-4.13,8.87-5.31,11.33-8.12,17.2-3.66-22.13-6.76-41.3-9.94-60.48-1.48.12-3.17.23-4.35.35v55.08c-4.72-22.25-3.73-44.37-4.81-66.4-1.01-20.75,4.8-42.63-4.26-62.38-2.24.15-4.49.29-6.85.44v62.6c-.59,0-2.03,0-3.12,0-5.51-36.79-10.92-73.58-16.43-110.37-.99.05-1.68.09-2.86.14v104.6c-5.31-16.29-4.15-32.68-5.31-48.92-1.1-15.5-4.36-30.85-7.25-50.29-11.79,39.62,10.18,79.36-17.81,114.39-1.9-7.72-3.21-13.04-4.34-17.64-19.98,24.06-14.33,52.34-14.87,79.58-.29,14.8-.23,29.6-.33,44.4-1.63.2-3.24.08-4.82-.36-5.04-30.54-10.14-61.07-15.18-91.6-2.23.04-4.4.08-6.76.11v74.77c-2.36-.06-4.72-.12-7.08-.18v-137.77c-1.18.02-2.05.03-3.07.05-4.22,18.33-8.45,36.65-12.68,54.97-.25-5.53,1.75-13.13-1.12-16.25-13.59-14.78-8.17-32.57-10.42-49.29-1.9-14.12-7.83-27.66-10.47-41.73-1.59-8.47-.29-17.47-.29-26.24-2.11-.16-4.22-.32-6.34-.48-1.56,10.46-4.27,20.89-4.47,31.38-.7,36.97-.52,73.95-.83,110.93,0,1.06-1.82,2.1-1.89,2.18-4.17-5.13-8.39-10.34-15.7-19.35-4.89,22.46-8.36,38.4-12.27,56.34-3.17-23.1-6.12-44.02-8.99-64.94-1.91.14-3.45.28-5.81.42v56.68c-1.77,0-3.54,0-5.31,0v-56.21c-.59.03-1.69.07-2.61.11-2.4,15.01-4.71,30.03-7.11,45.04-2.49-.28-5.02-.57-7.38-.85v-49.46c-1.18.05-2.27.1-3.4.15-.88,10.99-1.62,21.97-2.5,32.96-1.62-.08-3.53-.16-4.71-.24v-55.57c-1.77.03-2.59.06-3.82.09-.81,13.12-1.7,26.23-2.51,39.35-4.53-21.98-6.69-43.84-10.43-65.42-.72-4.14-7.86-7.17-12.02-10.72-2.54,3.96-5.1,7.91-7.76,12.04-3.55-6.97-6.98-13.64-10.37-20.31-1.25.27-2.61.54-3.79.8v83.11c-1.18-.03-2.13-.06-3.21-.09-.82-7.71-1.64-15.42-2.46-23.13-15.49,42.49-8.18,85.97-9.16,128.98-.61,1.76-.59,3.52.04,5.27-.54,12.82-1.09,25.63-1.64,38.45-1.8-14.63-3.62-29.26-5.39-43.88v-142.01c-2.95-.16-5.58-.32-8.38-.48-1.05,20.01-2.1,40.02-3.15,60.04-.8-.06-1.6-.11-2.4-.17-1.39-4.59-2.77-9.17-4.66-15.44-2.28,6.62-3.81,11.17-5.38,15.72-1.26-.17-2.57-.34-3.75-.51v-117.32c-1.77-.23-3.14-.46-4.68-.69-7.56,22.69-15.14,45.38-22.7,68.07-18.31-37.04-5.74-78.37-12.97-119.15-3.6,11.76-6.68,21.61-9.7,31.46-1.77-.27-3.61-.55-5.38-.82v-84.6c-2.36-.14-4.33-.28-6.54-.42-1.37,11.31-3.83,22.62-3.9,33.93-.4,60.18-.17,120.37-.17,180.55v24.94c-1.77-.06-4.13-.12-6.49-.18v-161.12c-.59.02-1.64.04-2.53.06-2.63,54.35-5.19,108.69-7.92,165.2-26.38-13.88-10.31-37.35-19.32-53.84-3.5,10.11-6.78,19.28-9.95,28.44-1.47-.16-2.73-.32-4.5-.48v-94.8c-1.18-.09-2.4-.18-3.63-.26-5.53,11.17-11.11,22.33-18.78,38.06v-48.7c-24.77,2.66-9.38-21.35-16.97-27.13-5.34.67-11.56,1.68-11.61,1.43-1.64-8.01-3.44-16.13-3.63-24.27-.47-20.2-.15-40.41-.15-60.62-1.21.06-2.41.11-3.62.17-2.98,29.73-5.96,59.45-9.19,91.66-3.34-5.31-4.98-7.9-8.58-13.63-2.93,61.27-5.69,118.82-8.44,176.38-.96-.04-1.93-.09-2.89-.13-.49-10.82-.98-21.64-1.46-32.45-1.14-.04-2.29-.07-3.43-.1-.77,15.03-1.54,30.06-2.31,45.09-1.11.02-2.22.04-3.33.06-.81-13.3-1.65-26.61-2.46-39.91-1.49,0-2.72-.01-4.49-.02v55.59c-1.77-.02-4.13-.05-5.9-.07v-126.12c-1.18.05-2.25.11-3.3.17-2.99,32.74-6.04,65.48-9.03,98.23-.69-.1-1.42-.19-2.12-.29-10.63-79.33-21.37-158.65-32.01-237.98-1.19,0-2.48.01-3.66.02v227.36c-4.13-3.55-4.88-7.11-4.95-10.68-1.91-96.09-3.69-192.18-5.63-288.28-.11-5.71-1.04-11.4-1.6-17.1-3.82,23.19-3.59,46.2-3.96,69.19-.1,6.19-1.43,17.53-3.18,17.73-19.64,2.2-13.03,16.89-13.11,27.08-.47,62.03-.21,124.07-.32,186.1-.01,7-.81,14-1.24,21-4.25-9.47-3.88-18.66-4.36-27.81-.46-8.89-1.72-17.74-2.66-26.61-2.47.26-4.99.51-7.35.76v65.35c-31.25-38.59-10.02-80.04-22.41-116.24v160.58c-.59,11.36-1.26,22.72-1.92,34.08-1.11,0-2.2,0-3.32,0-.62-11.35-1.23-22.71-1.85-34.07.15-30.48,3.08-61.17-1.87-91.25-2.32.05-4.63.11-6.95.17-.96,6.62-1.98,13.24-2.94,19.85-1.56-.12-2.98-.24-4.75-.36v-156.94c-1.77-.01-2.95-.03-4.72-.04v45.98c-1.18.03-2.12.06-3.14.08-2.78-16.89-5.47-33.79-8.25-50.68-1.93.21-3.95.42-5.72.62v65.88c-1.18.01-2.22.02-3.26.03-2.96-58.96-6.01-117.92-8.97-176.89-1.6.07-3.1.13-4.87.2v187.99c-10.03-30.69,3.19-64.23-14.42-93.69-1.67,50.97-1.4,101.82-1.91,152.65-.1,9.71-3.25,19.38-5,29.06-.94-7.18-1.89-14.35-2.83-21.53-18.36,30.98-13.21,63.12-13.66,94.65-2.29-1.94-4.64-3.87-7-5.81v-187.93c-1.18-.02-3.02-.04-4.59-.06-2.64,25.71-5.22,51.42-7.86,77.13-.65,0-1.28-.01-1.94-.02-.99-11.14-1.97-22.29-2.97-33.43-.96.07-1.91.15-2.87.22-.67,13.32-1.34,26.63-2.01,39.95-1.41.69-2.81,1.39-4.21,2.08-1.86-5.06-3.67-10.11-5.52-15.17-2.13,1.42-4.59,2.84-6.35,4.26v40.74c-1.77.05-3.1.09-4.63.14-4.47-66.28-8.99-132.57-13.47-198.86-1.42.06-3.13.13-4.31.19v137.94c-1.18.01-2.36.03-4.13.04v-53.41c-9.43-6.09-15.33-10.19-23-15.08v133.89c-4.72-27.58-9.14-55.15-13.97-84.57-7.89,23.12,4.53,48.12-14.34,67.74v-154.36c-4.72,13.27-.09,31.68-7.18,38.95-13.64,13.99-12.87,28.78-13.46,44.64v69.54c-30.07-6.35-10.56-30.39-21.8-44.83-1.06,15.13-2.04,28.47-2.98,41.82-1.95-.08-3.93-.16-5.89-.24-1.85-59.57-3.72-119.13-5.3-170.17-9.74,64.71-20.71,137.51-31.67,210.31-1.33-.13-2.66-.26-4-.4-1.28-10.07-2.57-20.14-3.86-30.22-2.53-.04-5.06-.08-7.59-.12-.66,28.39-1.32,56.79-1.98,85.18-1.3-.15-2.6-.3-3.9-.45-.6-1.74-1.2-3.48-1.81-5.22-.47-26.7,4.56-53.88-3.01-79.95-2.39.07-4.68.13-7.04.2v63.56c-1.77-.04-3.54-.09-5.31-.13v-48.28c-8.26,3.02-13.4,5.08-19.61,7.45-2.4-11.56-4.51-21.43-6.56-31.3-2,.18-4.02.36-6.02.54-.98,16.19-2.07,32.37-3.37,53.86-9.35-26.8,4.31-51.7-16.33-71.05v38.09c-1.18-.05-2.25-.11-3.42-.16-.62-9.66-1.19-19.32-1.8-28.97-1.65-.18-3.27-.37-4.92-.55-4.52,22.85-9.03,45.7-13.66,69.13-5.47-2.22-10.02-4.07-15.91-6.47-1.99,7.98-3.6,14.44-5.22,20.9-1.25-1.95-2.49-3.89-3.74-5.84-4.95,1.64-9.9,3.27-12.26,4.05-5.44-6.67-9.43-16.35-15.18-17.53-9.63-1.98-12.2-22.56-26.39-9.89-7.51-23.39-19.55-7.09-25.79-.97-18.03,17.69-33.73,29.94-48.03,32.39-5.37-5.61-10.92-11.41-17.74-18.54-3.04,5.35-5.14,9.03-7.24,12.72-19.68-10.16-25.21-9.29-47.62-1.75-14.22,4.79-30.01,9.33-44.53,7.97-32.82-3.08-65.05-1.41-97.48,2.85-9.04,1.18-18.56.87-27.59-.52-18.92-2.91-37.33-8.75-56.47.75-4.32,2.14-12.11-2.39-18.01-3.86v22.22c27.13,8.72,53.8,8.93,81.48,1.63,12.04-3.18,25.59-1.51,38.36-.56,5.8.43,13.93,2.93,16.44,7.19,6.64,11.26,15.56,7.5,24.03,5.93,21.63-4,43.12-8.79,64.71-13.04,11.93-2.35,20.98-.23,26.99,12.69,2.38,5.13,15.33,11.36,17.37,9.68,15.62-12.85,35.18,4.14,50.75-7.73,2.05-1.56,9.83,4.41,11.79,5.36,8.77-7.96,16.22-14.71,27.65-25.08,6.75,19.74,11.72,34.25,16.94,49.52.79-6.59,1.59-13.2,2.98-24.75,2.9,9.28,4.21,13.47,5.98,19.15,7.34-.62,17.52-17.55,22.78,8.85,2.24-12.65,3.26-18.41,4.28-24.16,1.44-.91,2.88-1.83,4.33-2.74.28,3.75.64,7.51.92,11.26,1.45-1.03,2.66-2.07,4.43-3.11v-13.64c2.95,11.75,5.86,23.49,10.41,41.49,4-14.03,6.4-22.55,10.45-36.74,1.19,17.09,1.95,28.25,2.6,37.75,11.05-12.84,21.66-25.18,33.96-39.47,4.05,16.58,7.7,31.98,11.46,47.39,1.26-.21,2.47-.42,3.65-.62v-71.46l2.44-.05,2.43.21c3.13,23.99-6.05,49.64,12.23,71.94v-45.64c.59,0,1.43,0,2.17,0,2.81,22.63,5.6,45.27,8.65,69.84,5.97-19.29,10.95-35.44,15.94-51.58,2.67,22.2,5.41,44.4,8.08,66.6,1.14,0,2.3-.01,3.48-.02v-56.55c1.18-.03,2.26-.07,3.43-.1,3.11,20.37,6.19,40.74,9.3,61.11,3.44-17.24,2.69-34.38,3.65-51.42.8-14.16,3.58-28.2,5.49-42.3,3.06,21.5-8.9,46.27,14.41,63.99,3.47-12.11,6.75-24.07,10.17-36.03,1.47.24,3.08.47,4.26.7v83.92c17.1-21.34,4.86-46.31,13.18-71.45,3.31,36.04,6.38,69.29,9.43,102.55,1.7-.1,3.34-.2,5.11-.3v-54.86c1.77.03,3.54.07,5.31.11v72.91c1.77-.01,3.54-.03,5.31-.05v-84.02c1.18-.01,2.8-.03,4.25-.04.65,9.66,1.26,19.32,1.91,28.97,4.62-10.66,3.98-21.35,4.76-31.93,1.14-15.31,3.24-30.55,5.01-45.82v121.19c2.36.03,4.94.05,7.42.08,1.13-59.23,2.25-118.45,3.37-177.68.71-5.93,1.41-11.86,2.12-17.79,1.03-.02,2.05-.05,3.07-.07.54,5.77,1.08,11.55,1.63,17.32,1.27,57.72-5.91,115.83,8.78,173,1.67-9,1.67-17.98,1.67-26.97.01-42.53-.1-85.06.15-127.58.05-8.03,1.54-16.05,2.37-24.07,1.04,1.12,2.2,2.15,3.08,3.38.51.71.57,1.74.84,2.62,1.43,29.77,2.87,59.54,4.3,89.31,1.36,0,2.72-.02,4.08-.03,3.15-22.32,6.28-44.64,9.43-66.96,1.64.14,3.14.28,4.91.42v118.06c6.49-23.61,12.25-43.78,17.34-62,8.76,29.09,17.91,59.43,27.06,89.78,6.85-10.23,9.32-19.94,9.59-29.71.63-23.11-.23-46.28.58-69.39.47-13.5,3.22-26.91,4.99-40.37v192.66c1.18.02,2.83.04,4.31.06,2.97-44.49,5.8-88.98,8.77-133.48,1.38.01,2.84.02,4.02.02v88.78c2.36,0,4.07,0,6.07-.01,1.67-40.25,3.37-80.5,5.04-120.75,4.56,21.97,9.14,43.93,14.05,67.58,2.55-42.71,4.99-83.48,7.43-124.25.66-9.08,1.33-18.17,2-27.25,1.06.1,2.19.19,3.25.29.53,9.06,1.08,18.12,1.67,27.17v200.49c7.67-35.49,2.82-71.46,14.37-107.32,9.28-28.81,5.99-61.67,8.29-92.73l1.58.09,1.59-.04c.4,29.57.36,59.16,1.48,88.7.29,7.64,2.63,20.49,6.77,21.71,12.4,3.68,9.23,12.07,9.37,19.5.36,19.44.12,38.9.12,58.35,1.36-.09,2.71-.17,4.06-.26,1.12-3.87,2.24-7.75,3.36-11.62,1.87.17,3.84.33,5.61.5v145.43c2.95-.02,5.9-.03,8.26-.05v-205.33c2.36.05,4.72.09,7.08.14v165.66c1.18.09,2.5.18,3.79.28,5.31-35.53,10.58-71.05,15.79-105.89,1.28,2.1,2.96,4.91,7.65,12.64,2.99-27.81,5.46-50.88,7.94-73.94.68,0,1.34-.02,2.02-.02.74,15.09,1.48,30.18,2.23,45.28,15.34-53.46,8.59-107.71,9.45-161.59.6-11.4,1.19-22.8,1.79-34.2,1.13.02,2.25.04,3.37.06.58,11.44,1.16,22.88,1.74,34.32.83,52.08,1.79,104.15,2.61,156.23,2.71,0,5.31-.02,8.26-.03v-123.66h5.31v144.69c2.36.06,4.23.11,6.34.17,2.22-27.84,4.32-55.67,6.54-83.5,1.25.02,2.45.04,3.63.06v127.58c1.77.02,2.6.05,3.84.07,1.14-9.11,2.44-18.21,3.59-27.32,1.6.11,3.19.22,4.96.34v76.48c.59-.11,1.31-.21,2.02-.32,2.62-16.49,5.06-32.98,7.69-49.47,2.13.17,4.45.33,6.22.5v49.63c2.36-.04,4.13-.07,5.9-.11v-78.2c4.13,9.04,5.67,12.11,7.42,15.82,2.15-4.67,3.85-8.41,5.86-12.78,1.91,4.81,3.43,8.68,4.97,12.55,2.07-.14,4.14-.29,6.22-.43,5.64-57.32.32-115.12,2.92-172.58,1.65,9.74,4.59,19.45,4.71,29.21.53,41.41.22,82.83.22,124.24,19.35-51.22,6.11-104.76,13.77-162.56,8.76,46.12-5.39,88.62,13.48,127.98v-221.01c2.36.03,4.72.07,7.08.1v243.09c1.77.04,4.09.07,6.17.11,2.31-30.68,4.68-61.36,6.98-92.04,13.82,23.49-.18,50.23,19.87,77.94v-85.01c4.72,22.09,4.16,44.16,5.49,66.09,1.28,21.02-6.67,43.38,10.43,62.88v-62.97c16.51,43.35,17.48,88.41,17.17,133.63,1.99-.08,4.06-.16,5.83-.24v-87.74c4.72,9.27,7.2,13.41,11.53,21.49,2.32-7.93,4.05-11.21,4.15-14.53,1.92-65.47,3.66-130.94,5.43-196.42,2.25,1.8,4.47,3.6,6.72,5.41,1.07,57.61-6.6,115.62,10.5,172.72v-122.78c1.77,0,3.54,0,5.31.01v172.97c2.36.07,5.13.15,7.67.23,2.55-61.57,5.26-123.14,7.81-184.7,2.45.06,4.57.13,7.52.19v139.49c.59,0,1.62,0,2.5-.01,2.23-7.79,4.41-15.58,6.63-23.36,2.08.25,3.84.5,6.19.75v83.8c1.77,0,4.13,0,6.49-.01v-117.52c1.18-.03,2.93-.06,4.46-.09.69,9.6,1.4,19.2,2.1,28.8,1.55,0,2.88-.02,4.65-.03v-50.95c1.77.04,3.54.08,5.31.12v183.04c2.36,0,4.71.01,7.01.02,1.28-55.07,2.51-110.15,4.18-165.22.33-10.78,2.96-21.48,4.73-32.23v109.46c1.18.03,2.91.05,4.41.08,5.59-31.67,11.14-63.35,17.16-97.48.98,18.87,1.95,35.74,2.83,52.6,1.66-.08,3.31-.16,5.08-.25v-111.06c1.18.02,2.95.03,4.72.05v183.85c1.18.09,2.87.17,4.33.26,4.37-28.23,8.72-56.47,13.08-84.7,1.29.21,2.57.42,3.86.63.6,5.48,1.18,10.96,1.78,16.44,1.84,15.04,3.59,30.07,5.43,45.11,1.74-.11,3.37-.23,5.14-.35v-88.48c10.02,60.72-2.95,122.53,16.51,182.62v-71.29c4.72,6.58,6.27,9.12,10.69,15.68,0-43.09-.3-81.66.31-120.22.15-9.64,3.45-19.23,5.28-28.84,2.82,48.68-9.85,99.57,22.43,148.81,9.64-67.17,18.49-130.15,27.34-190.46v130.58c1.18-.02,1.92-.04,2.88-.06,2.85-18.68,5.69-37.36,8.54-56.03,14.4,6.77,10.03,20.11,11.09,31.58,1.27,13.74,2.74,27.46,4.07,41.19,2.71-.19,5.27-.38,8.22-.57v-126.39c1.77.05,3.54.1,5.31.15v192.15c6.49-15.9,8.4-32.05,10.28-48.19.72-6.17,1.6-12.31,2.43-18.46,1.05,1.13,2.19,2.18,3.1,3.41.52.71.61,1.72.91,2.6,3.61,26.34,7.21,52.68,10.82,79.02,1.35-.12,2.69-.25,4.04-.37.61-7.93,1.22-15.85,1.83-23.78.79,0,1.58,0,2.37,0,1.72,7.42,3.52,14.85,5.24,22.27,2.23-.08,4.39-.17,6.75-.25v-159.28c1.77.01,3.3.02,5,.04,2.91,57.25,5.69,114.51,8.61,171.76,1.6-.03,3.5-.06,4.67-.08v-227.86c7.67,33.06,1.65,67.14,10.53,99.8,13.94-45.85-7.59-95.66,22.49-144.25v156.16c1.77.02,3.54.03,5.31.05v-40.36c1.18-.08,2.04-.16,3.09-.25,3.3,11.87,6.57,23.73,9.87,35.59,1.06-.15,2.12-.3,3.18-.45.71-14.7,1.42-29.41,2.13-44.11,2.47.02,4.95.04,7.43.06,3.2,40.5,6.36,81,9.57,121.5,1.24-.01,2.48-.02,3.66-.03v-62.6c2.95-.23,5.4-.46,8.07-.68,1.76,20.96,3.54,41.92,5.3,62.87.99-.09,1.99-.19,2.99-.28,2.81-38.91,5.62-77.83,8.43-116.74.37.01.73.02,1.1.04,2.14,27.81,4.41,55.62,6.55,83.43,2.71-.16,5.3-.32,8.25-.48v-98.87c1.18.05,2.95.09,4.72.14v73.48c2.36.2,4.6.41,6.89.61,3.3-34.35,6.62-68.69,9.93-103.03,1.15.04,2.3.09,3.45.13,2.94,40.68,5.96,81.37,8.9,122.06.87-.04,1.5-.08,2.68-.12v-210.31c0-13.03-.07-26.07-.07-39.1,2.34,13.05,4.64,26.1,6.98,39.15-.07,24.03-.64,48.07-.1,72.08.54,23.92-2.74,48.27,2.93,73.89,7.36-5.76,11.5-8.91,19.75-15.44v152.22c1.77-.01,3.54-.03,5.31-.04v-82.63c1.77-.06,3.28-.13,4.86-.19,4.71,24.38,9.48,48.75,14.19,73.13,12.74-35.95,6.65-72.8,7.75-109.13,1.09-36.13.25-72.31.25-108.47,1.87.02,3.76.05,5.63.07,0,46.05-.28,92.11.23,138.16.11,9.84,2.98,19.65,4.61,29.46,2.26-.26,4.34-.52,6.7-.78v-105.98q10.03,55.5,21.82,68.34v-178.92l2.65-.32,2.66.23v222.18c2.95.11,6.12.22,9.15.32,4.99-51.47.08-103.69,3.19-155.31,1.93.06,3.58.11,5.93.17v66.18c1.18-.08,2.95-.17,4.13-.26v-21.66c15.33-2.07,10.15,9.67,10.82,16.54,2.86,29.62,5.23,59.3,7.95,91.5,3.33-13.75,6.04-24.85,8.72-35.94,4.9,27.22,9.81,54.45,14.2,78.82,4.35-24.96,9.12-52.33,13.89-79.71,1.85-8.23,4.87-16.39,5.31-24.69.85-15.9.38-31.88.38-47.82,1.94.02,3.59.04,5.95.07v57.08c.59-.04,1.6-.09,2.41-.13,2.74-18.61,5.26-37.21,8.21-55.82v170.78c1.77,0,4.14,0,6.25-.01,2.32-55.01,4.59-110.02,6.91-165.03,1.53.03,2.76.05,4.53.08v137.01c.59-.06,1.75-.11,2.62-.16,1.94-26.06,3.87-52.13,5.81-78.19,1.69,0,3.39,0,5.08,0,1.48,5.94,2.95,11.89,3.55,14.29,4.45-14.32,9.4-30.27,14.35-46.22.83-9.4,1.65-18.79,2.48-28.18,6.27,45.57,10.91,90.78,15.67,135.99.12,1.16,1.55,2.17,3.3,4.51,1.17-9.27,2.16-16.84,3.12-24.41,1.57.1,2.98.21,4.75.32v145.08c4.72-10.92,4.39-21.87,4.78-32.79,1.73-48.78,2.72-97.62,5.85-146.32,1.88-29.22,7.16-58.21,10.92-87.3,2.82,27.88,5.65,55.77,8.47,83.66.8.07,1.83.14,2.42.21v-50.94c2.36-.03,4.13-.06,6.49-.09v88.88c1.77-.07,3.54-.15,5.31-.23v-126.72c10.03,28.82-2.36,60.59,15.33,93.31v-254.34c2.36.07,4.72.14,7.08.21v243.93c1.18.04,2.19.08,3.26.12,1.22-6.19,2.48-12.38,4.34-21.79,2.58,8.22,3.98,12.38,5.29,16.55,1.57-.35,3.03-.69,4.8-1.04v-92.87c.59.07,1.29.14,1.97.2,2.9,44.15,5.76,88.3,8.66,132.45.97-.1,1.93-.19,2.9-.29,1.19-4.04,2.39-8.09,3.58-12.13,1.37.05,2.94.11,4.13.16v80.14c1.77.14,3.04.28,4.57.42,3.02-6.38,5.94-12.76,8.95-19.14,1.22.22,2.4.45,3.58.67v99.24c17.1-99.32,5.25-199.42,15.85-298.88,2.45,60.97,4.94,121.94,7.39,182.91,20.87-86.4,13.07-174.05,13.72-261.3.68-7.98,1.37-15.96,2.05-23.95.99,0,2.07,0,3.06,0,.69,7.97,1.57,15.94,2.16,23.92v272.12c1.77.03,3.36.05,5.08.08,1.94-49.43,3.85-98.86,5.8-148.29,12.09-14.07,1.47-37.37,20.92-49.6,4.19-2.63,1.52-16.16,2.01-24.66,4.07,46.42,3.96,92.57,4.13,138.72.04,11.98.3,24.03,1.57,35.94,6.7,62.95,14.44,125.79,20.34,188.81,2.18,23.27.45,46.9.45,70.37,1.88,0,3.38-.01,5.74-.02v-117.64c.59-.04,1.96-.08,2.99-.13,1.6,4.44,3.16,8.87,4.76,13.31,1.22-.17,2.41-.33,3.62-.5,2.35-72.27,4.68-144.55,7.03-216.82,1.53.03,2.82.06,4.59.09v116.2c.59-.08,1.19-.17,1.78-.26,7.19-46.04,14.46-92.07,21.65-138.11,1.4.11,2.52.23,4.29.34v104.43c1.77,0,2.95-.01,4.72-.02v-216.8c1.18.01,2.22.02,3.31.03,2.85,72.33,5.69,144.66,8.54,216.98,1.75-.04,3.48-.07,5.25-.11v-98.68c24.18,24.36,14.52,51.56,15.79,76.35,1.33,25.94.24,52.01.24,78.02,1.94,0,4.01-.01,5.78-.02v-112.12c1.77-.04,2.81-.07,4.18-.11,3.35,31.5,6.78,63,10.13,94.5,2.67-.22,5.15-.44,8.09-.66v-120.64c1.77.05,4.13.11,5.9.16v183.4c1.18-.01,1.76-.02,2.62-.03,2.13-28.22,4.29-56.43,6.42-84.65,1.97.14,3.96.27,5.94.41.67,9.68,1.36,19.36,2.03,29.04,1.25-.03,2.49-.05,3.74-.08.55-11.6,1.17-23.2,1.72-34.8,1.54,0,2.89,0,4.67-.01v51.25c.59-.04,1.48-.08,2.25-.11,6.39-52.31,12.8-104.63,19.19-156.94,2.28.21,4.51.42,6.87.63v46.13c1.77-.01,3.54-.03,5.31-.04v-132.54c1.77,19.02,4.51,38.01,4.86,57.04.75,39.84.27,79.72.27,119.58,1.36,0,2.74-.01,4.1-.02,3-42.83,6.01-85.66,9-128.49.89.04,1.79.08,2.68.12.73,11.61,1.51,23.21,2.24,34.82,1.7-.04,3.38-.07,5.15-.11v-84.84c1.77.04,4,.08,6.03.11,2.03,37.11,4.05,74.21,6.08,111.31.93.01,1.85.02,2.77.03.65-9.65,1.29-19.3,1.93-28.95.91.02,1.82.04,2.73.06,2.94,52.68,5.87,105.36,8.81,158.04,19.88-64.09,13.36-130.32,15.87-195.74,1.96.08,4.13.16,5.89.24v271.14c5.31-26.78,1.09-54.26,5.87-80.12,10.23-55.3-.34-111.37,13.37-167.2,9.64-39.24,1.48-82.85,1.27-124.51.66-1.74.69-3.5.1-5.26.65-13.12,1.44-26.24,2.09-39.37,1.43.05,2.66.09,4.42.14v24.55c0,83.13-.15,166.25-.04,249.38,0,7.29-.3,20.59,1.55,20.95,24.89,4.86,13.85,24.22,14.38,36.83,1.5,35.77.51,71.65.51,107.48,1.81.03,3.61.07,5.42.1v-29.02c0-90.52,0-181.04.01-271.57,0-29.56-.07-59.12.35-88.67.06-4.39,2.71-8.74,4.17-13.1.58.7,1.26,1.41,1.84,2.12-4.23,52.93,4.83,104.12,23.11,154.48v-42.62c.59.08,1.32.15,2.03.23,2.79,80.73,5.41,161.47,8.2,242.21,1.75-.04,3.33-.09,5.1-.13v-282.44c1.77-.01,3.54-.01,5.31-.02v322.64c6.49-32.85,9.95-65.74,10.69-98.7,1.13-49.97-.02-99.99.53-149.99.11-9.65,3.48-19.26,5.36-28.89,3.57,30.23-10.1,63.44,17.61,92.92v-57.86c1.77,9.84,4.24,19.67,4.4,29.53.56,34.22-.58,68.49.48,102.69.9,29.35,3.81,58.63,5.89,87.95,1.95-.08,3.97-.17,5.74-.25v-315.51c1.77.01,3.54.03,4.72.05v30.15c0,91.59-.14,183.19.31,274.78.06,13.01,3.32,26,5.08,39,1.89-.18,3.79-.36,5.68-.53,0-9.13,0-18.27,0-27.4.01-70.31-.59-140.64.55-210.93.24-14.85,6.89-29.59,10.59-44.38,1.87,44.39,3.75,88.78,5.62,133.16,1.04-.12,2.08-.24,3.12-.36,2.51-19.66,5.01-39.31,7.52-58.97,2.62,25.43,5.25,50.86,7.87,76.29.73.16,1.46.31,2.19.46.95-8.12,1.91-16.24,2.86-24.36,1.73.02,3.47.04,5.2.06,2.26,20.79,4.52,41.58,6.78,62.37,3.32-29.59,2.36-58.97,3.59-88.27,1.21-28.83-5.91-58.54,7.1-89.17,17.56,25.92,3.47,53.9,13.29,78.33,1.73-9.98,1.08-19.95,1.88-29.8,1.15-14.27,3.35-28.46,5.1-42.68,1.94,73.82,3.89,147.65,5.83,221.47.02.92-.19,1.93.1,2.76,1.48,4.16,3.09,8.28,4.65,12.42,2.08-.31,4.16-.62,6.24-.93,0-32.09-.96-64.23.3-96.27,1.03-26.2-6.97-53.33,10.75-78.29,6.11-8.61,5.21-23.03,5.44-34.83.66-34.23.09-68.48.46-102.72.07-6.26,2.34-12.5,3.56-18.74,2.48.25,5.15.49,7.51.74v186.89c1.77-.03,4.13-.06,5.9-.1v-93.04c1.18-.06,2.69-.13,4.04-.2,4.8,36.79,9.58,73.59,14.39,110.38,1.33-.11,2.8-.22,3.98-.33v-193.25c8.84,58.8-2.36,118.77,15.92,176.93v-149.14c1.77-.17,3.08-.35,4.61-.52,8.51,53.08,17.02,106.17,25.53,159.25,2.23-.08,4.47-.17,6.71-.25,3.28-32.44,6.71-64.87,10-97.31,1.04-.02,2.11-.04,3.28-.06v94.77c1.77,0,4.1.02,6.23.02,2.34-52.07,4.61-104.13,7.16-160.76,3.28,25.24,5.92,45.84,8.59,66.43.58,3.76,1.14,7.51,1.73,11.27.97-.16,1.93-.32,2.9-.48.83-11,1.65-22,2.48-32.99.97.1,1.94.19,2.92.28,4.22,51.45,8.42,102.91,12.64,154.36,1.44-.1,3.12-.2,4.3-.3v-266.11c.59-1.71,1.04-3.49.98-5.34l2.76-.09,2.75.17v270.44c2.36,0,5.49,0,8.3.01,1.41-73.1,2.75-146.21,4.16-219.31.83.06,1.63.11,2.46.17,1.9,22.6,3.79,45.2,5.69,67.79,1.82.15,3.63.31,5.45.46,3.44-6.99,6.87-13.98,10.31-20.97,1.6.03,3.2.07,4.79.1,1.72,37.33,3.39,74.66,5.11,111.98,1.3-.02,2.67-.04,3.85-.06v-121.25c1.77,9.6,4.37,19.13,5.24,28.81,2.93,32.34,5.28,64.73,7.83,97.1.82-.07,1.64-.13,2.45-.19,2.24-36.35,4.48-72.69,6.72-109.04,2.88,5.54,5.76,11.08,11.22,21.55,0-17.24-.95-29.06.47-40.6.56-4.53,6.44-8.41,9.9-12.58,2.99,33.97,5.89,67.94,8.87,101.91,1.92-.02,3.9-.04,5.67-.07v-142.13c2.95.02,5.31.04,7.67.06v181.65c1.77.1,3.32.19,4.92.29,3-22.24,6.07-44.48,9.09-66.83,2.21,2.39,4.28,4.58,6.79,7.29,2.67-34.02,5.27-66.94,7.85-99.86,12.45-2.5,10.38,6.87,10.56,13.52.61,22.64.8,45.3,1.14,67.95.2.9.24,1.88.63,2.68.39.79,1.14,1.4,1.74,2.09,2.54-6.85,7.04-13.63,7.28-20.55.88-25.59.35-51.24.35-76.86,9.96,51.17-.81,103.22,16.88,153.63v-104.22c1.77-.03,4.13-.06,5.9-.09v81.23c.59-.16,1.14-.32,1.68-.49,4.99-41.63,10.02-83.25,15.01-124.87,1.57.13,3.15.25,4.72.37,2.79,23.48,5.65,46.96,8.43,70.44.84-.02,1.42-.04,2.6-.06v-121.45c0-7.22.54-14.43.85-21.65,1.97,7.23,3.9,14.46,5.87,21.68-.48,1.73-.49,3.47,0,5.2-.22,44.48-4.61,89.23,7.84,134.99,2.17-6.81,3.7-11.48,5.19-16.16,1.26.21,2.66.43,3.84.64v63.04c1.77.13,3.79.25,5.71.38,1.53-14.17,3.4-28.31,4.47-42.51,2.13-28.23,3.79-56.49,5.65-84.74,5.7,11.79,11.4,23.58,20.13,41.61,1.32-24.75,2.33-43.62,3.34-62.5,9.25,36.66-6.59,76.4,18.88,109.74,6.31-29.55,12.66-59.24,20.34-95.18,4.27,21.3,7.28,35.6,10.15,49.9,2.04-.23,3.91-.45,6.27-.68v-74.47c0,.1.59.19.95.29,4.3,39.99,8.53,79.98,12.83,119.98,2.62-.02,5.2-.05,7.82-.07,3.54-32.93,7.07-65.85,10.6-98.66,6.2.52,9.4.21,9.64.9,3.97,11.63,7.56,23.4,12.95,40.55,3.41-13.42,5.65-21.7,8.89-34.47,3.96,48.12,3.54,48.12,26.54,47.22v-58.29c1.18-.05,3.2-.1,4.87-.16,2.89,12.87,5.71,25.75,8.6,38.62,2.89,8.13,5.75,16.25,9.35,26.36,2.89-17.17,5.23-31.13,7.8-46.34,6.57,7.51,11.47,13.13,16.38,18.74.47,5.13.86,10.26,1.33,15.39,1.41-.03,2.98-.07,4.16-.11v-76.38c1.77-.13,3.55-.27,5.29-.4,2.89,20.22,5.83,40.43,8.89,61.81,1.8-3.05,2.99-5.25,4.41-7.28.27-.38,1.55-.05,2.28-.05,1.62,6.19,3.26,12.44,4.9,18.69,1.37-.16,2.73-.31,4.1-.47,3.2-18.62,6.4-37.24,9.6-55.86,4.67,19.72,9.22,39.44,13.89,59.17,1.32-.02,2.66-.04,3.84-.07v-55.62c2.36-.19,3.94-.38,5.85-.57,6.35,17.31,12.75,34.61,19.12,52,25.11-15.19,2.23-47.73,22.54-66.39,1.2,14.36,2.34,28,3.48,41.64,2.21-.09,4.42-.19,6.63-.29,1.35-13.39,2.72-26.79,3.72-36.69,6.8,16.44,14.35,34.67,23.27,56.24,7.32-15.41,12.63-26.6,20.12-42.4,3.53,11.59,5.53,18.17,9.09,29.86,1.31-16.56,2.14-26.97,3.45-43.49,3.24,10.61,4.53,14.86,5.85,19.17,3.96-2.24,7.65-4.32,11.67-6.59,2.57,8.94,4.73,16.44,7.77,27.04,8.87-6.75,15.3-11.64,21.29-16.2.99,2.75,2.61,7.24,5.14,14.25,10.15-10.71,18.57-19.59,26.3-27.74,5.53,8.44,10.85,16.59,16.19,24.73,1.65-.29,3.17-.58,4.94-.86v-42.39c1.18.12,2.27.24,3.4.36,1.06,11.53,2.13,23.05,3.38,36.51,17.89-16.42,28.88-32.7,26.23-55.18l2.14-.17,2.14.13c3.82,21.18,7.63,42.36,11.23,62.31,16.72.33,22.63-5.96,26.56-18.77,2.81-9.17,12.65-16.17,20.42-25.4,4.15,15.87,7.51,28.73,11.4,43.62,26.03-13.18,39.8-30.79,42-56.89,6.64,18.38,13.27,36.76,20.22,56.02,1.61-6.81,2.96-12.54,4.41-18.68,4.63,2.81,7.6,4.62,8.84,5.37,9.32-11.79,17.86-22.58,28.97-36.63,5.07,17.57,9.06,31.42,13.95,48.36,6.82-9.55,12.33-17.65,18.24-25.44,10.32-13.59,25.72-12.56,33.01,2.29,3.02,6.15,5.11,12.76,6.82,17.12,6.97-10.79,13.76-21.29,20.55-31.78,10.19,1.34,20.37,2.69,32.13,4.24.93,3.1,2.45,8.23,4.31,14.46,5.25-8.04,9.96-15.25,16.53-25.33,12.69,23.52,29.51,11.95,45.13,9.36,7.17-1.19,15.14-10.27,20.26,3.45.69,1.85,7.73,2.92,11.08,1.9,12.5-3.82,24.69-8.65,38.4-13.61,2.53,4.85,4.98,9.56,7.33,14.09,22.04-2.01,41.86-24.21,66.18-7.09,1.94,1.36,5.84,1.9,7.85.89,25.69-12.94,54.29-6.85,80.19-6.93,58.87-.19,117.72-12.43,176.64-2.27,2.63.45,5.46-.23,8.2-.43,26.5-1.95,53.01-3.87,79.51-5.89,15.3-1.17,30.59-2.51,45.88-3.77,21.67.5,43.35,1.48,65.02,1.42,87.74-.25,175.47-.7,263.21-1.45,8.02-.07,16.02-2.7,24.03-4.14,10.34,1.6,20.41,3.2,31.03,4.8v-11.11c-10.03-1.73-19.53-4.84-29.32-4.94Z"/>
</svg>