<?xml version="1.0" encoding="UTF-8"?>
<svg id="Object" xmlns="http://www.w3.org/2000/svg" viewBox="0 0 653.8 641.19">
  <defs>
    <style>
      .cls-1 {
        fill: #fff;
      }
    </style>
  </defs>
  <path class="cls-1" d="m510.98,377.29v263.04c32.7-.4,61.04-18.93,75.43-46,2.66,1.62,5.73,2.7,9.18,2.7h3.64c6.3,0,11.55-3.44,14.69-7.7,3.21-4.3,4.9-9.63,4.93-15.34v-250.97h-9.75c-5.28,0-9.53-4.33-9.47-9.62.03-1.05.03-2.13.03-3.19,0-150.66-122.14-272.79-272.8-272.79S54.08,159.56,54.08,310.22c0,1.05,0,2.14.02,3.19.07,5.29-4.18,9.62-9.48,9.62h-9.72v250.97c.02,5.71,1.68,11.03,4.91,15.34,3.15,4.26,8.39,7.7,14.69,7.7h3.66c3.16,0,6.05-.87,8.55-2.26,14.46,26.84,42.72,45.17,75.28,45.57v-263.04c-25.66.31-48.54,11.81-64.22,29.76v-74.78c7.98-1.54,13.93-8.25,14.71-16.39l.18-.88-.02-2.89c0-64.71,26.21-123.19,68.61-165.61,42.41-42.4,100.93-68.6,165.63-68.61,64.7,0,123.18,26.2,165.61,68.61,42.41,42.42,68.59,100.92,68.59,165.62v2.05c.02,8.9,6.33,16.45,14.89,18.11v75.68c-15.66-18.48-38.93-30.34-64.98-30.66Z"/>
  <path class="cls-1" d="m609.1,323.03h18.43c5.18,0,9.43-4.15,9.53-9.34.02-1.16.02-2.31.02-3.47C637.08,138.89,498.18,0,326.87,0S16.64,138.89,16.64,310.22c0,1.16.02,2.31.05,3.47.08,5.18,4.31,9.34,9.5,9.34h18.43c5.3,0,9.56-4.33,9.48-9.62-.02-1.05-.02-2.13-.02-3.19,0-150.66,122.14-272.79,272.79-272.79s272.8,122.12,272.8,272.79c0,1.05,0,2.14-.03,3.19-.05,5.29,4.19,9.62,9.47,9.62Z"/>
  <path class="cls-1" d="m0,525.25c0,17.35,13.96,31.43,31.28,31.64v-96.14c-17.33.21-31.28,14.29-31.28,31.65v32.84Z"/>
  <path class="cls-1" d="m622.52,556.89c17.31-.21,31.28-14.29,31.28-31.64v-32.84c0-17.36-13.97-31.44-31.28-31.65v96.14Z"/>
  <path class="cls-1" d="m147.59,377.25v263.94h31.88c5.01,0,9.04-4.04,9.04-9.02v-245.91c0-4.98-4.03-9.01-9.04-9.01h-31.88Z"/>
  <path class="cls-1" d="m463.9,386.27v245.91c0,4.98,4.03,9.02,9.01,9.02h31.91v-263.94h-31.91c-4.98,0-9.01,4.03-9.01,9.01Z"/>
</svg>